<svg width="65" height="32" viewBox="0 0 65 32" fill="none" xmlns="http://www.w3.org/2000/svg">
<rect x="0.5" y="0.5" width="64" height="31" rx="4.79412" stroke="#333333"/>
<g clip-path="url(#clip0_2009_1874)">
<path d="M13.7083 9.04199H7.29167C6.78541 9.04199 6.375 9.4524 6.375 9.95866V13.167C6.375 13.6733 6.78541 14.0837 7.29167 14.0837H13.7083C14.2146 14.0837 14.625 13.6733 14.625 13.167V9.95866C14.625 9.4524 14.2146 9.04199 13.7083 9.04199Z" stroke="white" stroke-width="0.916667" stroke-linecap="round" stroke-linejoin="round"/>
<path d="M8.20837 9.04199V7.20866C8.20837 6.60087 8.44982 6.01798 8.87959 5.58821C9.30936 5.15843 9.89225 4.91699 10.5 4.91699C11.1078 4.91699 11.6907 5.15843 12.1205 5.58821C12.5503 6.01798 12.7917 6.60087 12.7917 7.20866V9.04199" stroke="white" stroke-width="0.916667" stroke-linecap="round" stroke-linejoin="round"/>
</g>
<mask id="path-4-outside-1_2009_1874" maskUnits="userSpaceOnUse" x="17" y="4" width="40" height="11" fill="black">
<rect fill="white" x="17" y="4" width="40" height="11"/>
<path d="M21.278 13.077C20.772 13.077 20.3173 12.989 19.914 12.813C19.518 12.6297 19.2063 12.3803 18.979 12.065C18.7517 11.7423 18.6343 11.372 18.627 10.954H19.694C19.7307 11.3133 19.8773 11.6177 20.134 11.867C20.398 12.109 20.7793 12.23 21.278 12.23C21.7547 12.23 22.1287 12.1127 22.4 11.878C22.6787 11.636 22.818 11.328 22.818 10.954C22.818 10.6607 22.7373 10.4223 22.576 10.239C22.4147 10.0557 22.213 9.91633 21.971 9.821C21.729 9.72567 21.4027 9.623 20.992 9.513C20.486 9.381 20.079 9.249 19.771 9.117C19.4703 8.985 19.21 8.77967 18.99 8.501C18.7773 8.215 18.671 7.83367 18.671 7.357C18.671 6.939 18.7773 6.56867 18.99 6.246C19.2027 5.92333 19.4997 5.674 19.881 5.498C20.2697 5.322 20.7133 5.234 21.212 5.234C21.9307 5.234 22.5173 5.41367 22.972 5.773C23.434 6.13233 23.6943 6.609 23.753 7.203H22.653C22.6163 6.90967 22.4623 6.653 22.191 6.433C21.9197 6.20567 21.5603 6.092 21.113 6.092C20.695 6.092 20.354 6.202 20.09 6.422C19.826 6.63467 19.694 6.93533 19.694 7.324C19.694 7.60267 19.771 7.83 19.925 8.006C20.0863 8.182 20.2807 8.31767 20.508 8.413C20.7427 8.501 21.069 8.60367 21.487 8.721C21.993 8.86033 22.4 8.99967 22.708 9.139C23.016 9.271 23.28 9.48 23.5 9.766C23.72 10.0447 23.83 10.426 23.83 10.91C23.83 11.284 23.731 11.636 23.533 11.966C23.335 12.296 23.0417 12.5637 22.653 12.769C22.2643 12.9743 21.806 13.077 21.278 13.077ZM30.8031 9.755C30.8031 9.94567 30.7921 10.1473 30.7701 10.36H25.9521C25.9887 10.954 26.1904 11.4197 26.5571 11.757C26.9311 12.087 27.3821 12.252 27.9101 12.252C28.3427 12.252 28.7021 12.153 28.9881 11.955C29.2814 11.7497 29.4867 11.4783 29.6041 11.141H30.6821C30.5207 11.7203 30.1981 12.1933 29.7141 12.56C29.2301 12.9193 28.6287 13.099 27.9101 13.099C27.3381 13.099 26.8247 12.9707 26.3701 12.714C25.9227 12.4573 25.5707 12.0943 25.3141 11.625C25.0574 11.1483 24.9291 10.5983 24.9291 9.975C24.9291 9.35167 25.0537 8.80533 25.3031 8.336C25.5524 7.86667 25.9007 7.50733 26.3481 7.258C26.8027 7.00133 27.3234 6.873 27.9101 6.873C28.4821 6.873 28.9881 6.99767 29.4281 7.247C29.8681 7.49633 30.2054 7.841 30.4401 8.281C30.6821 8.71367 30.8031 9.205 30.8031 9.755ZM29.7691 9.546C29.7691 9.16467 29.6847 8.83833 29.5161 8.567C29.3474 8.28833 29.1164 8.07933 28.8231 7.94C28.5371 7.79333 28.2181 7.72 27.8661 7.72C27.3601 7.72 26.9274 7.88133 26.5681 8.204C26.2161 8.52667 26.0144 8.974 25.9631 9.546H29.7691ZM31.7503 9.975C31.7503 9.35167 31.875 8.809 32.1243 8.347C32.3737 7.87767 32.7183 7.51467 33.1583 7.258C33.6057 7.00133 34.1153 6.873 34.6873 6.873C35.428 6.873 36.0367 7.05267 36.5133 7.412C36.9973 7.77133 37.3163 8.27 37.4703 8.908H36.3923C36.2897 8.54133 36.088 8.25167 35.7873 8.039C35.494 7.82633 35.1273 7.72 34.6873 7.72C34.1153 7.72 33.6533 7.918 33.3013 8.314C32.9493 8.70267 32.7733 9.25633 32.7733 9.975C32.7733 10.701 32.9493 11.262 33.3013 11.658C33.6533 12.054 34.1153 12.252 34.6873 12.252C35.1273 12.252 35.494 12.1493 35.7873 11.944C36.0807 11.7387 36.2823 11.4453 36.3923 11.064H37.4703C37.309 11.68 36.9863 12.175 36.5023 12.549C36.0183 12.9157 35.4133 13.099 34.6873 13.099C34.1153 13.099 33.6057 12.9707 33.1583 12.714C32.7183 12.4573 32.3737 12.0943 32.1243 11.625C31.875 11.1557 31.7503 10.6057 31.7503 9.975ZM44.152 6.972V13H43.151V12.109C42.9603 12.417 42.6927 12.659 42.348 12.835C42.0107 13.0037 41.6367 13.088 41.226 13.088C40.7567 13.088 40.335 12.9927 39.961 12.802C39.587 12.604 39.29 12.3107 39.07 11.922C38.8573 11.5333 38.751 11.0603 38.751 10.503V6.972H39.741V10.371C39.741 10.965 39.8913 11.4233 40.192 11.746C40.4927 12.0613 40.9033 12.219 41.424 12.219C41.9593 12.219 42.381 12.054 42.689 11.724C42.997 11.394 43.151 10.9137 43.151 10.283V6.972H44.152ZM46.8431 7.951C47.0191 7.60633 47.2685 7.33867 47.5911 7.148C47.9211 6.95733 48.3208 6.862 48.7901 6.862V7.896H48.5261C47.4041 7.896 46.8431 8.50467 46.8431 9.722V13H45.8421V6.972H46.8431V7.951ZM55.4456 9.755C55.4456 9.94567 55.4346 10.1473 55.4126 10.36H50.5946C50.6313 10.954 50.833 11.4197 51.1996 11.757C51.5736 12.087 52.0246 12.252 52.5526 12.252C52.9853 12.252 53.3446 12.153 53.6306 11.955C53.924 11.7497 54.1293 11.4783 54.2466 11.141H55.3246C55.1633 11.7203 54.8406 12.1933 54.3566 12.56C53.8726 12.9193 53.2713 13.099 52.5526 13.099C51.9806 13.099 51.4673 12.9707 51.0126 12.714C50.5653 12.4573 50.2133 12.0943 49.9566 11.625C49.7 11.1483 49.5716 10.5983 49.5716 9.975C49.5716 9.35167 49.6963 8.80533 49.9456 8.336C50.195 7.86667 50.5433 7.50733 50.9906 7.258C51.4453 7.00133 51.966 6.873 52.5526 6.873C53.1246 6.873 53.6306 6.99767 54.0706 7.247C54.5106 7.49633 54.848 7.841 55.0826 8.281C55.3246 8.71367 55.4456 9.205 55.4456 9.755ZM54.4116 9.546C54.4116 9.16467 54.3273 8.83833 54.1586 8.567C53.99 8.28833 53.759 8.07933 53.4656 7.94C53.1796 7.79333 52.8606 7.72 52.5086 7.72C52.0026 7.72 51.57 7.88133 51.2106 8.204C50.8586 8.52667 50.657 8.974 50.6056 9.546H54.4116Z"/>
</mask>
<path d="M21.278 13.077C20.772 13.077 20.3173 12.989 19.914 12.813C19.518 12.6297 19.2063 12.3803 18.979 12.065C18.7517 11.7423 18.6343 11.372 18.627 10.954H19.694C19.7307 11.3133 19.8773 11.6177 20.134 11.867C20.398 12.109 20.7793 12.23 21.278 12.23C21.7547 12.23 22.1287 12.1127 22.4 11.878C22.6787 11.636 22.818 11.328 22.818 10.954C22.818 10.6607 22.7373 10.4223 22.576 10.239C22.4147 10.0557 22.213 9.91633 21.971 9.821C21.729 9.72567 21.4027 9.623 20.992 9.513C20.486 9.381 20.079 9.249 19.771 9.117C19.4703 8.985 19.21 8.77967 18.99 8.501C18.7773 8.215 18.671 7.83367 18.671 7.357C18.671 6.939 18.7773 6.56867 18.99 6.246C19.2027 5.92333 19.4997 5.674 19.881 5.498C20.2697 5.322 20.7133 5.234 21.212 5.234C21.9307 5.234 22.5173 5.41367 22.972 5.773C23.434 6.13233 23.6943 6.609 23.753 7.203H22.653C22.6163 6.90967 22.4623 6.653 22.191 6.433C21.9197 6.20567 21.5603 6.092 21.113 6.092C20.695 6.092 20.354 6.202 20.09 6.422C19.826 6.63467 19.694 6.93533 19.694 7.324C19.694 7.60267 19.771 7.83 19.925 8.006C20.0863 8.182 20.2807 8.31767 20.508 8.413C20.7427 8.501 21.069 8.60367 21.487 8.721C21.993 8.86033 22.4 8.99967 22.708 9.139C23.016 9.271 23.28 9.48 23.5 9.766C23.72 10.0447 23.83 10.426 23.83 10.91C23.83 11.284 23.731 11.636 23.533 11.966C23.335 12.296 23.0417 12.5637 22.653 12.769C22.2643 12.9743 21.806 13.077 21.278 13.077ZM30.8031 9.755C30.8031 9.94567 30.7921 10.1473 30.7701 10.36H25.9521C25.9887 10.954 26.1904 11.4197 26.5571 11.757C26.9311 12.087 27.3821 12.252 27.9101 12.252C28.3427 12.252 28.7021 12.153 28.9881 11.955C29.2814 11.7497 29.4867 11.4783 29.6041 11.141H30.6821C30.5207 11.7203 30.1981 12.1933 29.7141 12.56C29.2301 12.9193 28.6287 13.099 27.9101 13.099C27.3381 13.099 26.8247 12.9707 26.3701 12.714C25.9227 12.4573 25.5707 12.0943 25.3141 11.625C25.0574 11.1483 24.9291 10.5983 24.9291 9.975C24.9291 9.35167 25.0537 8.80533 25.3031 8.336C25.5524 7.86667 25.9007 7.50733 26.3481 7.258C26.8027 7.00133 27.3234 6.873 27.9101 6.873C28.4821 6.873 28.9881 6.99767 29.4281 7.247C29.8681 7.49633 30.2054 7.841 30.4401 8.281C30.6821 8.71367 30.8031 9.205 30.8031 9.755ZM29.7691 9.546C29.7691 9.16467 29.6847 8.83833 29.5161 8.567C29.3474 8.28833 29.1164 8.07933 28.8231 7.94C28.5371 7.79333 28.2181 7.72 27.8661 7.72C27.3601 7.72 26.9274 7.88133 26.5681 8.204C26.2161 8.52667 26.0144 8.974 25.9631 9.546H29.7691ZM31.7503 9.975C31.7503 9.35167 31.875 8.809 32.1243 8.347C32.3737 7.87767 32.7183 7.51467 33.1583 7.258C33.6057 7.00133 34.1153 6.873 34.6873 6.873C35.428 6.873 36.0367 7.05267 36.5133 7.412C36.9973 7.77133 37.3163 8.27 37.4703 8.908H36.3923C36.2897 8.54133 36.088 8.25167 35.7873 8.039C35.494 7.82633 35.1273 7.72 34.6873 7.72C34.1153 7.72 33.6533 7.918 33.3013 8.314C32.9493 8.70267 32.7733 9.25633 32.7733 9.975C32.7733 10.701 32.9493 11.262 33.3013 11.658C33.6533 12.054 34.1153 12.252 34.6873 12.252C35.1273 12.252 35.494 12.1493 35.7873 11.944C36.0807 11.7387 36.2823 11.4453 36.3923 11.064H37.4703C37.309 11.68 36.9863 12.175 36.5023 12.549C36.0183 12.9157 35.4133 13.099 34.6873 13.099C34.1153 13.099 33.6057 12.9707 33.1583 12.714C32.7183 12.4573 32.3737 12.0943 32.1243 11.625C31.875 11.1557 31.7503 10.6057 31.7503 9.975ZM44.152 6.972V13H43.151V12.109C42.9603 12.417 42.6927 12.659 42.348 12.835C42.0107 13.0037 41.6367 13.088 41.226 13.088C40.7567 13.088 40.335 12.9927 39.961 12.802C39.587 12.604 39.29 12.3107 39.07 11.922C38.8573 11.5333 38.751 11.0603 38.751 10.503V6.972H39.741V10.371C39.741 10.965 39.8913 11.4233 40.192 11.746C40.4927 12.0613 40.9033 12.219 41.424 12.219C41.9593 12.219 42.381 12.054 42.689 11.724C42.997 11.394 43.151 10.9137 43.151 10.283V6.972H44.152ZM46.8431 7.951C47.0191 7.60633 47.2685 7.33867 47.5911 7.148C47.9211 6.95733 48.3208 6.862 48.7901 6.862V7.896H48.5261C47.4041 7.896 46.8431 8.50467 46.8431 9.722V13H45.8421V6.972H46.8431V7.951ZM55.4456 9.755C55.4456 9.94567 55.4346 10.1473 55.4126 10.36H50.5946C50.6313 10.954 50.833 11.4197 51.1996 11.757C51.5736 12.087 52.0246 12.252 52.5526 12.252C52.9853 12.252 53.3446 12.153 53.6306 11.955C53.924 11.7497 54.1293 11.4783 54.2466 11.141H55.3246C55.1633 11.7203 54.8406 12.1933 54.3566 12.56C53.8726 12.9193 53.2713 13.099 52.5526 13.099C51.9806 13.099 51.4673 12.9707 51.0126 12.714C50.5653 12.4573 50.2133 12.0943 49.9566 11.625C49.7 11.1483 49.5716 10.5983 49.5716 9.975C49.5716 9.35167 49.6963 8.80533 49.9456 8.336C50.195 7.86667 50.5433 7.50733 50.9906 7.258C51.4453 7.00133 51.966 6.873 52.5526 6.873C53.1246 6.873 53.6306 6.99767 54.0706 7.247C54.5106 7.49633 54.848 7.841 55.0826 8.281C55.3246 8.71367 55.4456 9.205 55.4456 9.755ZM54.4116 9.546C54.4116 9.16467 54.3273 8.83833 54.1586 8.567C53.99 8.28833 53.759 8.07933 53.4656 7.94C53.1796 7.79333 52.8606 7.72 52.5086 7.72C52.0026 7.72 51.57 7.88133 51.2106 8.204C50.8586 8.52667 50.657 8.974 50.6056 9.546H54.4116Z" fill="white"/>
<path d="M19.914 12.813L19.4939 13.7205L19.5039 13.7251L19.5141 13.7295L19.914 12.813ZM18.979 12.065L18.1615 12.641L18.1678 12.6498L18.979 12.065ZM18.627 10.954V9.954H17.6093L17.6272 10.9715L18.627 10.954ZM19.694 10.954L20.6888 10.8525L20.5972 9.954H19.694V10.954ZM20.134 11.867L19.4372 12.5843L19.4476 12.5944L19.4583 12.6042L20.134 11.867ZM22.4 11.878L23.0542 12.6344L23.0557 12.633L22.4 11.878ZM22.576 10.239L21.8253 10.8996L21.8253 10.8996L22.576 10.239ZM21.971 9.821L21.6045 10.7514L21.6045 10.7514L21.971 9.821ZM20.992 9.513L21.2507 8.54703L21.2444 8.54538L20.992 9.513ZM19.771 9.117L19.369 10.0327L19.3771 10.0361L19.771 9.117ZM18.99 8.501L18.1875 9.0977L18.1962 9.1093L18.2051 9.12064L18.99 8.501ZM18.99 6.246L19.825 6.79631L19.825 6.79631L18.99 6.246ZM19.881 5.498L19.4685 4.58702L19.4619 4.59004L19.881 5.498ZM22.972 5.773L22.3519 6.55758L22.3581 6.56235L22.972 5.773ZM23.753 7.203V8.203H24.8566L24.7482 7.10471L23.753 7.203ZM22.653 7.203L21.6607 7.32703L21.7702 8.203H22.653V7.203ZM22.191 6.433L21.5488 7.19952L21.5549 7.20469L21.5612 7.20976L22.191 6.433ZM20.09 6.422L20.7173 7.20075L20.7238 7.19554L20.7302 7.19022L20.09 6.422ZM19.925 8.006L19.1724 8.6645L19.18 8.6732L19.1878 8.68172L19.925 8.006ZM20.508 8.413L20.1213 9.33519L20.1389 9.3426L20.1569 9.34933L20.508 8.413ZM21.487 8.721L21.2167 9.6838L21.2215 9.68512L21.487 8.721ZM22.708 9.139L22.2958 10.0501L22.3049 10.0542L22.3141 10.0581L22.708 9.139ZM23.5 9.766L22.7073 10.3758L22.7151 10.3856L23.5 9.766ZM23.533 11.966L24.3905 12.4805L24.3905 12.4805L23.533 11.966ZM22.653 12.769L22.1859 11.8848L22.653 12.769ZM21.278 13.077V12.077C20.8891 12.077 20.5736 12.0098 20.3139 11.8965L19.914 12.813L19.5141 13.7295C20.0611 13.9682 20.6549 14.077 21.278 14.077V13.077ZM19.914 12.813L20.3341 11.9055C20.0746 11.7854 19.9052 11.6397 19.7902 11.4802L18.979 12.065L18.1678 12.6498C18.5075 13.1209 18.9614 13.474 19.4939 13.7205L19.914 12.813ZM18.979 12.065L19.7965 11.489C19.6915 11.34 19.6309 11.1668 19.6268 10.9365L18.627 10.954L17.6272 10.9715C17.6378 11.5772 17.8119 12.1447 18.1615 12.641L18.979 12.065ZM18.627 10.954V11.954H19.694V10.954V9.954H18.627V10.954ZM19.694 10.954L18.6992 11.0555C18.7595 11.6463 19.0102 12.1694 19.4372 12.5843L20.134 11.867L20.8308 11.1497C20.7445 11.0659 20.7019 10.9803 20.6888 10.8525L19.694 10.954ZM20.134 11.867L19.4583 12.6042C19.9684 13.0717 20.6277 13.23 21.278 13.23V12.23V11.23C20.931 11.23 20.8276 11.1463 20.8097 11.1298L20.134 11.867ZM21.278 12.23V13.23C21.9149 13.23 22.5486 13.0716 23.0542 12.6344L22.4 11.878L21.7458 11.1216C21.7087 11.1537 21.5944 11.23 21.278 11.23V12.23ZM22.4 11.878L23.0557 12.633C23.5564 12.1982 23.818 11.6132 23.818 10.954H22.818H21.818C21.818 11.0141 21.8075 11.042 21.8024 11.0533C21.7974 11.0643 21.7849 11.0877 21.7443 11.123L22.4 11.878ZM22.818 10.954H23.818C23.818 10.4688 23.6797 9.97946 23.3267 9.57837L22.576 10.239L21.8253 10.8996C21.8216 10.8954 21.8178 10.8902 21.8146 10.8846C21.8114 10.879 21.8102 10.8756 21.8103 10.8758C21.8104 10.8762 21.818 10.8987 21.818 10.954H22.818ZM22.576 10.239L23.3267 9.57837C23.0538 9.26819 22.7173 9.04021 22.3375 8.89059L21.971 9.821L21.6045 10.7514C21.7087 10.7925 21.7756 10.8431 21.8253 10.8996L22.576 10.239ZM21.971 9.821L22.3375 8.89059C22.0453 8.77549 21.6782 8.66155 21.2507 8.54705L20.992 9.513L20.7333 10.4789C21.1271 10.5845 21.4127 10.6758 21.6045 10.7514L21.971 9.821ZM20.992 9.513L21.2444 8.54538C20.7632 8.41984 20.4091 8.30249 20.1649 8.19785L19.771 9.117L19.3771 10.0361C19.7489 10.1955 20.2088 10.3422 20.7396 10.4806L20.992 9.513ZM19.771 9.117L20.173 8.20136C20.0343 8.14046 19.9019 8.0422 19.7749 7.88136L18.99 8.501L18.2051 9.12064C18.5181 9.51714 18.9064 9.82954 19.369 10.0326L19.771 9.117ZM18.99 8.501L19.7925 7.9043C19.7452 7.84072 19.671 7.69059 19.671 7.357H18.671H17.671C17.671 7.97675 17.8095 8.58928 18.1875 9.0977L18.99 8.501ZM18.671 7.357H19.671C19.671 7.11794 19.7288 6.94223 19.825 6.79631L18.99 6.246L18.155 5.69569C17.8259 6.1951 17.671 6.76006 17.671 7.357H18.671ZM18.99 6.246L19.825 6.79631C19.9262 6.64274 20.0727 6.51087 20.3001 6.40596L19.881 5.498L19.4619 4.59004C18.9266 4.83712 18.4792 5.20392 18.155 5.69569L18.99 6.246ZM19.881 5.498L20.2935 6.40895C20.5325 6.30072 20.8318 6.234 21.212 6.234V5.234V4.234C20.5949 4.234 20.0068 4.34327 19.4685 4.58705L19.881 5.498ZM21.212 5.234V6.234C21.761 6.234 22.1128 6.36859 22.3519 6.55756L22.972 5.773L23.5921 4.98844C22.9218 4.45874 22.1004 4.234 21.212 4.234V5.234ZM22.972 5.773L22.3581 6.56235C22.5988 6.7496 22.7255 6.97405 22.7578 7.30129L23.753 7.203L24.7482 7.10471C24.6631 6.24395 24.2692 5.51506 23.5859 4.98365L22.972 5.773ZM23.753 7.203V6.203H22.653V7.203V8.203H23.753V7.203ZM22.653 7.203L23.6453 7.07897C23.5709 6.48365 23.2538 6.00729 22.8208 5.65624L22.191 6.433L21.5612 7.20976C21.6211 7.25832 21.6446 7.29186 21.6525 7.305C21.6588 7.31552 21.6599 7.32026 21.6607 7.32703L22.653 7.203ZM22.191 6.433L22.8332 5.66648C22.3385 5.25201 21.7317 5.092 21.113 5.092V6.092V7.092C21.389 7.092 21.5008 7.15932 21.5488 7.19952L22.191 6.433ZM21.113 6.092V5.092C20.5136 5.092 19.9301 5.25352 19.4498 5.65378L20.09 6.422L20.7302 7.19022C20.7779 7.15048 20.8764 7.092 21.113 7.092V6.092ZM20.09 6.422L19.4627 5.64325C18.9267 6.07498 18.694 6.68263 18.694 7.324H19.694H20.694C20.694 7.24301 20.7075 7.21152 20.7086 7.20899C20.7094 7.20723 20.7093 7.20782 20.7085 7.2088C20.7079 7.20967 20.7098 7.20685 20.7173 7.20075L20.09 6.422ZM19.694 7.324H18.694C18.694 7.79609 18.8295 8.27256 19.1724 8.6645L19.925 8.006L20.6776 7.34749C20.6825 7.35307 20.6874 7.35992 20.6917 7.36739C20.6959 7.3748 20.6981 7.38038 20.6989 7.38269C20.7005 7.38749 20.694 7.37144 20.694 7.324H19.694ZM19.925 8.006L19.1878 8.68172C19.45 8.96773 19.7651 9.18585 20.1213 9.33519L20.508 8.413L20.8947 7.49081C20.7962 7.44948 20.7226 7.39627 20.6622 7.33028L19.925 8.006ZM20.508 8.413L20.1569 9.34933C20.4305 9.45192 20.7881 9.56345 21.2167 9.68379L21.487 8.721L21.7573 7.75821C21.3499 7.64388 21.0549 7.55008 20.8591 7.47667L20.508 8.413ZM21.487 8.721L21.2215 9.68512C21.7015 9.81729 22.0537 9.94056 22.2958 10.0501L22.708 9.139L23.1202 8.22789C22.7463 8.05877 22.2845 7.90338 21.7525 7.75688L21.487 8.721ZM22.708 9.139L22.3141 10.0581C22.4529 10.1176 22.5834 10.2145 22.7074 10.3757L23.5 9.766L24.2926 9.15629C23.9766 8.74548 23.5791 8.42435 23.1019 8.21985L22.708 9.139ZM23.5 9.766L22.7151 10.3856C22.7528 10.4333 22.83 10.5699 22.83 10.91H23.83H24.83C24.83 10.2821 24.6872 9.656 24.2849 9.14636L23.5 9.766ZM23.83 10.91H22.83C22.83 11.0973 22.7831 11.2722 22.6755 11.4515L23.533 11.966L24.3905 12.4805C24.6789 11.9998 24.83 11.4707 24.83 10.91H23.83ZM23.533 11.966L22.6755 11.4515C22.5842 11.6037 22.4365 11.7524 22.1859 11.8848L22.653 12.769L23.1201 13.6532C23.6468 13.375 24.0858 12.9883 24.3905 12.4805L23.533 11.966ZM22.653 12.769L22.1859 11.8848C21.9674 12.0002 21.6757 12.077 21.278 12.077V13.077V14.077C21.9363 14.077 22.5612 13.9485 23.1201 13.6532L22.653 12.769ZM30.7701 10.36V11.36H31.6719L31.7647 10.4629L30.7701 10.36ZM25.9521 10.36V9.36H24.8884L24.954 10.4216L25.9521 10.36ZM26.5571 11.757L25.88 12.4929L25.8876 12.5L25.8954 12.5068L26.5571 11.757ZM28.9881 11.955L29.5573 12.7772L29.5615 12.7742L28.9881 11.955ZM29.6041 11.141V10.141H28.8931L28.6596 10.8125L29.6041 11.141ZM30.6821 11.141L31.6454 11.4093L31.9986 10.141H30.6821V11.141ZM29.7141 12.56L30.3102 13.3629L30.3179 13.3571L29.7141 12.56ZM26.3701 12.714L25.8724 13.5814L25.8785 13.5848L26.3701 12.714ZM25.3141 11.625L24.4336 12.0991L24.4367 12.1048L25.3141 11.625ZM25.3031 8.336L26.1862 8.80515L26.1862 8.80515L25.3031 8.336ZM26.3481 7.258L26.8349 8.13149L26.8396 8.12882L26.3481 7.258ZM29.4281 7.247L28.935 8.11702L28.935 8.11702L29.4281 7.247ZM30.4401 8.281L29.5577 8.75159L29.5624 8.76042L29.5673 8.76915L30.4401 8.281ZM29.7691 9.546V10.546H30.7691V9.546H29.7691ZM29.5161 8.567L28.6605 9.08484L28.6668 9.09493L29.5161 8.567ZM28.8231 7.94L28.3667 8.82982L28.3803 8.83675L28.394 8.84328L28.8231 7.94ZM26.5681 8.204L25.8999 7.45991L25.8923 7.46685L26.5681 8.204ZM25.9631 9.546L24.9671 9.45662L24.8693 10.546H25.9631V9.546ZM30.8031 9.755H29.8031C29.8031 9.90747 29.7942 10.0746 29.7754 10.2571L30.7701 10.36L31.7647 10.4629C31.7899 10.2201 31.8031 9.98386 31.8031 9.755H30.8031ZM30.7701 10.36V9.36H25.9521V10.36V11.36H30.7701V10.36ZM25.9521 10.36L24.954 10.4216C25.0032 11.22 25.2872 11.9476 25.88 12.4929L26.5571 11.757L27.2341 11.0211C27.0936 10.8918 26.9742 10.688 26.9502 10.2984L25.9521 10.36ZM26.5571 11.757L25.8954 12.5068C26.4635 13.008 27.154 13.252 27.9101 13.252V12.252V11.252C27.6101 11.252 27.3986 11.166 27.2187 11.0072L26.5571 11.757ZM27.9101 12.252V13.252C28.4962 13.252 29.0672 13.1165 29.5573 12.7772L28.9881 11.955L28.4188 11.1328C28.3369 11.1895 28.1893 11.252 27.9101 11.252V12.252ZM28.9881 11.955L29.5615 12.7742C30.0266 12.4487 30.362 12.0059 30.5486 11.4695L29.6041 11.141L28.6596 10.8125C28.6115 10.9508 28.5362 11.0506 28.4146 11.1358L28.9881 11.955ZM29.6041 11.141V12.141H30.6821V11.141V10.141H29.6041V11.141ZM30.6821 11.141L29.7187 10.8727C29.6167 11.239 29.4216 11.527 29.1102 11.7629L29.7141 12.56L30.3179 13.3571C30.9746 12.8596 31.4247 12.2017 31.6454 11.4093L30.6821 11.141ZM29.7141 12.56L29.118 11.7571C28.8376 11.9652 28.4565 12.099 27.9101 12.099V13.099V14.099C28.801 14.099 29.6225 13.8734 30.3102 13.3629L29.7141 12.56ZM27.9101 13.099V12.099C27.4934 12.099 27.1523 12.0072 26.8616 11.8432L26.3701 12.714L25.8785 13.5848C26.4972 13.9341 27.1827 14.099 27.9101 14.099V13.099ZM26.3701 12.714L26.8677 11.8466C26.5864 11.6852 26.3631 11.4591 26.1914 11.1452L25.3141 11.625L24.4367 12.1048C24.7783 12.7295 25.2591 13.2295 25.8724 13.5814L26.3701 12.714ZM25.3141 11.625L26.1945 11.1509C26.0275 10.8407 25.9291 10.4581 25.9291 9.975H24.9291H23.9291C23.9291 10.7386 24.0873 11.456 24.4336 12.0991L25.3141 11.625ZM24.9291 9.975H25.9291C25.9291 9.48694 26.0259 9.10692 26.1862 8.80515L25.3031 8.336L24.4199 7.86684C24.0816 8.50374 23.9291 9.21639 23.9291 9.975H24.9291ZM25.3031 8.336L26.1862 8.80515C26.3487 8.49918 26.5624 8.28336 26.8349 8.13148L26.3481 7.258L25.8612 6.38452C25.239 6.73131 24.7561 7.23415 24.4199 7.86684L25.3031 8.336ZM26.3481 7.258L26.8396 8.12882C27.1265 7.9669 27.4739 7.873 27.9101 7.873V6.873V5.873C27.1728 5.873 26.479 6.03576 25.8565 6.38718L26.3481 7.258ZM27.9101 6.873V7.873C28.3323 7.873 28.6642 7.96356 28.935 8.11702L29.4281 7.247L29.9211 6.37698C29.3119 6.03177 28.6318 5.873 27.9101 5.873V6.873ZM29.4281 7.247L28.935 8.11702C29.2125 8.27424 29.4136 8.48146 29.5577 8.75159L30.4401 8.281L31.3224 7.81041C30.9971 7.20054 30.5236 6.71843 29.9211 6.37698L29.4281 7.247ZM30.4401 8.281L29.5673 8.76915C29.717 9.03681 29.8031 9.3568 29.8031 9.755H30.8031H31.8031C31.8031 9.0532 31.6471 8.39052 31.3128 7.79285L30.4401 8.281ZM29.7691 9.546H30.7691C30.7691 9.01454 30.6501 8.49722 30.3653 8.03907L29.5161 8.567L28.6668 9.09493C28.7193 9.17945 28.7691 9.31479 28.7691 9.546H29.7691ZM29.5161 8.567L30.3716 8.0492C30.1019 7.60362 29.7228 7.26031 29.2521 7.03672L28.8231 7.94L28.394 8.84328C28.5099 8.89835 28.5929 8.97305 28.6606 9.0848L29.5161 8.567ZM28.8231 7.94L29.2794 7.05018C28.8391 6.82439 28.3614 6.72 27.8661 6.72V7.72V8.72C28.0747 8.72 28.235 8.76227 28.3667 8.82982L28.8231 7.94ZM27.8661 7.72V6.72C27.1263 6.72 26.4522 6.96407 25.8999 7.45995L26.5681 8.204L27.2362 8.94805C27.4026 8.7986 27.5938 8.72 27.8661 8.72V7.72ZM26.5681 8.204L25.8923 7.46685C25.3207 7.99081 25.0359 8.6894 24.9671 9.45662L25.9631 9.546L26.9591 9.63538C26.9929 9.2586 27.1114 9.06252 27.2438 8.94115L26.5681 8.204ZM25.9631 9.546V10.546H29.7691V9.546V8.546H25.9631V9.546ZM32.1243 8.347L33.0044 8.82194L33.0075 8.81616L32.1243 8.347ZM33.1583 7.258L32.6607 6.39061L32.6545 6.39422L33.1583 7.258ZM36.5133 7.412L35.9114 8.21054L35.9172 8.21491L36.5133 7.412ZM37.4703 8.908V9.908H38.7404L38.4424 8.67336L37.4703 8.908ZM36.3923 8.908L35.4294 9.17763L35.6339 9.908H36.3923V8.908ZM35.7873 8.039L35.2003 8.84867L35.2099 8.85542L35.7873 8.039ZM33.3013 8.314L34.0426 8.98531L34.0488 8.97836L33.3013 8.314ZM33.3013 11.658L34.0488 10.9936L34.0488 10.9936L33.3013 11.658ZM35.7873 11.944L36.3608 12.7632L36.3608 12.7632L35.7873 11.944ZM36.3923 11.064V10.064H35.64L35.4315 10.7868L36.3923 11.064ZM37.4703 11.064L38.4377 11.3174L38.766 10.064H37.4703V11.064ZM36.5023 12.549L37.1062 13.3461L37.1138 13.3403L36.5023 12.549ZM33.1583 12.714L32.6545 13.5778L32.6607 13.5814L33.1583 12.714ZM32.1243 11.625L31.2412 12.0942L31.2412 12.0942L32.1243 11.625ZM31.7503 9.975H32.7503C32.7503 9.48646 32.8473 9.11296 33.0044 8.82193L32.1243 8.347L31.2443 7.87207C30.9027 8.50504 30.7503 9.21688 30.7503 9.975H31.7503ZM32.1243 8.347L33.0075 8.81616C33.1735 8.50361 33.39 8.28056 33.6622 8.12178L33.1583 7.258L32.6545 6.39422C32.0467 6.74877 31.5739 7.25172 31.2412 7.87784L32.1243 8.347ZM33.1583 7.258L33.656 8.12537C33.9358 7.96483 34.2705 7.873 34.6873 7.873V6.873V5.873C33.9602 5.873 33.2755 6.03784 32.6607 6.39063L33.1583 7.258ZM34.6873 6.873V7.873C35.264 7.873 35.6463 8.01073 35.9114 8.21052L36.5133 7.412L37.1153 6.61348C36.427 6.0946 35.592 5.873 34.6873 5.873V6.873ZM36.5133 7.412L35.9172 8.21491C36.1961 8.42193 36.394 8.71056 36.4983 9.14264L37.4703 8.908L38.4424 8.67336C38.2387 7.82944 37.7986 7.12073 37.1094 6.60909L36.5133 7.412ZM37.4703 8.908V7.908H36.3923V8.908V9.908H37.4703V8.908ZM36.3923 8.908L37.3553 8.63837C37.193 8.05872 36.8597 7.57264 36.3648 7.22258L35.7873 8.039L35.2099 8.85542C35.3163 8.93069 35.3863 9.02395 35.4294 9.17763L36.3923 8.908ZM35.7873 8.039L36.3743 7.22939C35.8764 6.86839 35.292 6.72 34.6873 6.72V7.72V8.72C34.9626 8.72 35.1116 8.78427 35.2004 8.84861L35.7873 8.039ZM34.6873 7.72V6.72C33.8553 6.72 33.1121 7.02173 32.5539 7.64964L33.3013 8.314L34.0488 8.97836C34.1946 8.81427 34.3754 8.72 34.6873 8.72V7.72ZM33.3013 8.314L32.5601 7.64272C31.9884 8.27403 31.7733 9.10088 31.7733 9.975H32.7733H33.7733C33.7733 9.41178 33.9103 9.1313 34.0425 8.98528L33.3013 8.314ZM32.7733 9.975H31.7733C31.7733 10.8547 31.9874 11.685 32.5539 12.3224L33.3013 11.658L34.0488 10.9936C33.9113 10.839 33.7733 10.5473 33.7733 9.975H32.7733ZM33.3013 11.658L32.5539 12.3224C33.1121 12.9503 33.8553 13.252 34.6873 13.252V12.252V11.252C34.3754 11.252 34.1946 11.1577 34.0488 10.9936L33.3013 11.658ZM34.6873 12.252V13.252C35.285 13.252 35.8642 13.1108 36.3608 12.7632L35.7873 11.944L35.2139 11.1248C35.1238 11.1878 34.9697 11.252 34.6873 11.252V12.252ZM35.7873 11.944L36.3608 12.7632C36.8619 12.4124 37.1871 11.9168 37.3532 11.3412L36.3923 11.064L35.4315 10.7868C35.3776 10.9738 35.2994 11.0649 35.2139 11.1248L35.7873 11.944ZM36.3923 11.064V12.064H37.4703V11.064V10.064H36.3923V11.064ZM37.4703 11.064L36.503 10.8106C36.3951 11.2224 36.1925 11.5246 35.8909 11.7577L36.5023 12.549L37.1138 13.3403C37.7802 12.8254 38.2229 12.1376 38.4377 11.3174L37.4703 11.064ZM36.5023 12.549L35.8985 11.7519C35.6203 11.9626 35.2393 12.099 34.6873 12.099V13.099V14.099C35.5874 14.099 36.4164 13.8687 37.1062 13.3461L36.5023 12.549ZM34.6873 13.099V12.099C34.2705 12.099 33.9358 12.0072 33.656 11.8466L33.1583 12.714L32.6607 13.5814C33.2755 13.9342 33.9602 14.099 34.6873 14.099V13.099ZM33.1583 12.714L33.6622 11.8502C33.39 11.6914 33.1735 11.4684 33.0075 11.1558L32.1243 11.625L31.2412 12.0942C31.5739 12.7203 32.0467 13.2232 32.6545 13.5778L33.1583 12.714ZM32.1243 11.625L33.0075 11.1558C32.848 10.8557 32.7503 10.4725 32.7503 9.975H31.7503H30.7503C30.7503 10.7388 30.902 11.4556 31.2412 12.0942L32.1243 11.625ZM44.152 6.972H45.152V5.972H44.152V6.972ZM44.152 13V14H45.152V13H44.152ZM43.151 13H42.151V14H43.151V13ZM43.151 12.109H44.151V8.59376L42.3007 11.5826L43.151 12.109ZM42.348 12.835L42.7952 13.7295L42.8028 13.7256L42.348 12.835ZM39.961 12.802L39.4931 13.6858L39.4999 13.6894L39.5068 13.6929L39.961 12.802ZM39.07 11.922L38.1927 12.402L38.1962 12.4083L38.1997 12.4146L39.07 11.922ZM38.751 6.972V5.972H37.751V6.972H38.751ZM39.741 6.972H40.741V5.972H39.741V6.972ZM40.192 11.746L39.4603 12.4278L39.4682 12.4361L40.192 11.746ZM42.689 11.724L41.9579 11.0417L41.9579 11.0417L42.689 11.724ZM43.151 6.972V5.972H42.151V6.972H43.151ZM44.152 6.972H43.152V13H44.152H45.152V6.972H44.152ZM44.152 13V12H43.151V13V14H44.152V13ZM43.151 13H44.151V12.109H43.151H42.151V13H43.151ZM43.151 12.109L42.3007 11.5826C42.2128 11.7247 42.0868 11.8455 41.8932 11.9444L42.348 12.835L42.8028 13.7256C43.2985 13.4725 43.7079 13.1093 44.0012 12.6354L43.151 12.109ZM42.348 12.835L41.9008 11.9406C41.7143 12.0338 41.4955 12.088 41.226 12.088V13.088V14.088C41.7778 14.088 42.307 13.9735 42.7952 13.7294L42.348 12.835ZM41.226 13.088V12.088C40.8957 12.088 40.6326 12.0219 40.4152 11.9111L39.961 12.802L39.5068 13.6929C40.0373 13.9634 40.6176 14.088 41.226 14.088V13.088ZM39.961 12.802L40.4289 11.9182C40.2331 11.8146 40.0717 11.6616 39.9402 11.4294L39.07 11.922L38.1997 12.4146C38.5083 12.9597 38.9408 13.3934 39.4931 13.6858L39.961 12.802ZM39.07 11.922L39.9472 11.442C39.8333 11.2337 39.751 10.935 39.751 10.503H38.751H37.751C37.751 11.1856 37.8813 11.8329 38.1927 12.402L39.07 11.922ZM38.751 10.503H39.751V6.972H38.751H37.751V10.503H38.751ZM38.751 6.972V7.972H39.741V6.972V5.972H38.751V6.972ZM39.741 6.972H38.741V10.371H39.741H40.741V6.972H39.741ZM39.741 10.371H38.741C38.741 11.1286 38.9347 11.8636 39.4604 12.4277L40.192 11.746L40.9236 11.0643C40.848 10.9831 40.741 10.8014 40.741 10.371H39.741ZM40.192 11.746L39.4682 12.4361C39.994 12.9875 40.6874 13.219 41.424 13.219V12.219V11.219C41.1192 11.219 40.9913 11.1352 40.9157 11.0559L40.192 11.746ZM41.424 12.219V13.219C42.1805 13.219 42.8878 12.9765 43.42 12.4063L42.689 11.724L41.9579 11.0417C41.8741 11.1315 41.7381 11.219 41.424 11.219V12.219ZM42.689 11.724L43.42 12.4063C43.9593 11.8285 44.151 11.0658 44.151 10.283H43.151H42.151C42.151 10.7615 42.0347 10.9595 41.9579 11.0417L42.689 11.724ZM43.151 10.283H44.151V6.972H43.151H42.151V10.283H43.151ZM43.151 6.972V7.972H44.152V6.972V5.972H43.151V6.972ZM46.8431 7.951H45.8431L47.7337 8.40578L46.8431 7.951ZM47.5911 7.148L47.0908 6.28209L47.0824 6.28707L47.5911 7.148ZM48.7901 6.862H49.7901V5.862H48.7901V6.862ZM48.7901 7.896V8.896H49.7901V7.896H48.7901ZM46.8431 13V14H47.8431V13H46.8431ZM45.8421 13H44.8421V14H45.8421V13ZM45.8421 6.972V5.972H44.8421V6.972H45.8421ZM46.8431 6.972H47.8431V5.972H46.8431V6.972ZM46.8431 7.951L47.7337 8.40578C47.8265 8.22416 47.9459 8.09989 48.0998 8.00893L47.5911 7.148L47.0824 6.28707C46.591 6.57745 46.2118 6.98851 45.9525 7.49622L46.8431 7.951ZM47.5911 7.148L48.0914 8.01386C48.2378 7.92927 48.4561 7.862 48.7901 7.862V6.862V5.862C48.1855 5.862 47.6044 5.98539 47.0908 6.28214L47.5911 7.148ZM48.7901 6.862H47.7901V7.896H48.7901H49.7901V6.862H48.7901ZM48.7901 7.896V6.896H48.5261V7.896V8.896H48.7901V7.896ZM48.5261 7.896V6.896C47.7891 6.896 47.0586 7.0997 46.5286 7.67477C46.0127 8.23443 45.8431 8.9785 45.8431 9.722H46.8431H47.8431C47.8431 9.24817 47.954 9.07924 47.9992 9.03023C48.0301 8.99663 48.1412 8.896 48.5261 8.896V7.896ZM46.8431 9.722H45.8431V13H46.8431H47.8431V9.722H46.8431ZM46.8431 13V12H45.8421V13V14H46.8431V13ZM45.8421 13H46.8421V6.972H45.8421H44.8421V13H45.8421ZM45.8421 6.972V7.972H46.8431V6.972V5.972H45.8421V6.972ZM46.8431 6.972H45.8431V7.951H46.8431H47.8431V6.972H46.8431ZM55.4126 10.36V11.36H56.3145L56.4073 10.4629L55.4126 10.36ZM50.5946 10.36V9.36H49.531L49.5965 10.4216L50.5946 10.36ZM51.1996 11.757L50.5226 12.4929L50.5302 12.5L50.538 12.5068L51.1996 11.757ZM53.6306 11.955L54.1999 12.7772L54.2041 12.7742L53.6306 11.955ZM54.2466 11.141V10.141H53.5357L53.3021 10.8125L54.2466 11.141ZM55.3246 11.141L56.288 11.4093L56.6412 10.141H55.3246V11.141ZM54.3566 12.56L54.9528 13.3629L54.9605 13.3571L54.3566 12.56ZM51.0126 12.714L50.515 13.5814L50.521 13.5848L51.0126 12.714ZM49.9566 11.625L49.0761 12.0991L49.0793 12.1048L49.9566 11.625ZM49.9456 8.336L50.8287 8.80515L50.8287 8.80515L49.9456 8.336ZM50.9906 7.258L51.4775 8.13149L51.4822 8.12882L50.9906 7.258ZM54.0706 7.247L53.5776 8.11702L53.5776 8.11702L54.0706 7.247ZM55.0826 8.281L54.2003 8.75159L54.205 8.76042L54.2099 8.76915L55.0826 8.281ZM54.4116 9.546V10.546H55.4116V9.546H54.4116ZM54.1586 8.567L53.3031 9.08484L53.3093 9.09493L54.1586 8.567ZM53.4656 7.94L53.0093 8.82982L53.0228 8.83675L53.0366 8.84328L53.4656 7.94ZM51.2106 8.204L50.5425 7.45991L50.5349 7.46685L51.2106 8.204ZM50.6056 9.546L49.6096 9.45662L49.5119 10.546H50.6056V9.546ZM55.4456 9.755H54.4456C54.4456 9.90747 54.4368 10.0746 54.4179 10.2571L55.4126 10.36L56.4073 10.4629C56.4324 10.2201 56.4456 9.98386 56.4456 9.755H55.4456ZM55.4126 10.36V9.36H50.5946V10.36V11.36H55.4126V10.36ZM50.5946 10.36L49.5965 10.4216C49.6458 11.22 49.9298 11.9476 50.5226 12.4929L51.1996 11.757L51.8767 11.0211C51.7361 10.8918 51.6168 10.688 51.5927 10.2984L50.5946 10.36ZM51.1996 11.757L50.538 12.5068C51.106 13.008 51.7965 13.252 52.5526 13.252V12.252V11.252C52.2527 11.252 52.0412 11.166 51.8613 11.0072L51.1996 11.757ZM52.5526 12.252V13.252C53.1387 13.252 53.7098 13.1165 54.1998 12.7772L53.6306 11.955L53.0614 11.1328C52.9795 11.1895 52.8319 11.252 52.5526 11.252V12.252ZM53.6306 11.955L54.2041 12.7742C54.6691 12.4487 55.0046 12.0059 55.1911 11.4695L54.2466 11.141L53.3021 10.8125C53.254 10.9508 53.1788 11.0506 53.0572 11.1358L53.6306 11.955ZM54.2466 11.141V12.141H55.3246V11.141V10.141H54.2466V11.141ZM55.3246 11.141L54.3613 10.8727C54.2593 11.239 54.0641 11.527 53.7528 11.7629L54.3566 12.56L54.9605 13.3571C55.6171 12.8596 56.0673 12.2017 56.288 11.4093L55.3246 11.141ZM54.3566 12.56L53.7605 11.7571C53.4802 11.9652 53.0991 12.099 52.5526 12.099V13.099V14.099C53.4435 14.099 54.2651 13.8734 54.9527 13.3629L54.3566 12.56ZM52.5526 13.099V12.099C52.136 12.099 51.7948 12.0072 51.5042 11.8432L51.0126 12.714L50.521 13.5848C51.1398 13.9341 51.8253 14.099 52.5526 14.099V13.099ZM51.0126 12.714L51.5103 11.8466C51.229 11.6852 51.0057 11.4591 50.834 11.1452L49.9566 11.625L49.0793 12.1048C49.4209 12.7295 49.9016 13.2295 50.515 13.5814L51.0126 12.714ZM49.9566 11.625L50.8371 11.1509C50.6701 10.8407 50.5716 10.4581 50.5716 9.975H49.5716H48.5716C48.5716 10.7386 48.7299 11.456 49.0762 12.0991L49.9566 11.625ZM49.5716 9.975H50.5716C50.5716 9.48694 50.6684 9.10692 50.8287 8.80515L49.9456 8.336L49.0625 7.86684C48.7242 8.50374 48.5716 9.21639 48.5716 9.975H49.5716ZM49.9456 8.336L50.8287 8.80515C50.9913 8.49918 51.205 8.28336 51.4775 8.13148L50.9906 7.258L50.5038 6.38452C49.8816 6.73131 49.3986 7.23415 49.0625 7.86684L49.9456 8.336ZM50.9906 7.258L51.4822 8.12882C51.7691 7.9669 52.1165 7.873 52.5526 7.873V6.873V5.873C51.8154 5.873 51.1215 6.03576 50.499 6.38718L50.9906 7.258ZM52.5526 6.873V7.873C52.9749 7.873 53.3068 7.96356 53.5776 8.11702L54.0706 7.247L54.5636 6.37698C53.9545 6.03177 53.2744 5.873 52.5526 5.873V6.873ZM54.0706 7.247L53.5776 8.11702C53.8551 8.27424 54.0562 8.48146 54.2003 8.75159L55.0826 8.281L55.965 7.81041C55.6397 7.20054 55.1662 6.71843 54.5636 6.37698L54.0706 7.247ZM55.0826 8.281L54.2099 8.76915C54.3596 9.03681 54.4456 9.3568 54.4456 9.755H55.4456H56.4456C56.4456 9.0532 56.2897 8.39052 55.9554 7.79285L55.0826 8.281ZM54.4116 9.546H55.4116C55.4116 9.01454 55.2927 8.49722 55.0079 8.03907L54.1586 8.567L53.3093 9.09493C53.3619 9.17945 53.4116 9.31479 53.4116 9.546H54.4116ZM54.1586 8.567L55.0141 8.0492C54.7444 7.60362 54.3654 7.26031 53.8947 7.03672L53.4656 7.94L53.0366 8.84328C53.1525 8.89835 53.2355 8.97305 53.3031 9.0848L54.1586 8.567ZM53.4656 7.94L53.9219 7.05018C53.4817 6.82439 53.0039 6.72 52.5086 6.72V7.72V8.72C52.7173 8.72 52.8776 8.76227 53.0093 8.82982L53.4656 7.94ZM52.5086 7.72V6.72C51.7689 6.72 51.0947 6.96407 50.5425 7.45995L51.2106 8.204L51.8788 8.94805C52.0452 8.7986 52.2364 8.72 52.5086 8.72V7.72ZM51.2106 8.204L50.5349 7.46685C49.9633 7.99081 49.6785 8.6894 49.6096 9.45662L50.6056 9.546L51.6016 9.63538C51.6354 9.2586 51.754 9.06252 51.8864 8.94115L51.2106 8.204ZM50.6056 9.546V10.546H54.4116V9.546V8.546H50.6056V9.546Z" fill="#333333" mask="url(#path-4-outside-1_2009_1874)"/>
<mask id="path-6-outside-2_2009_1874" maskUnits="userSpaceOnUse" x="4" y="16" width="57" height="15" fill="black">
<rect fill="white" x="4" y="16" width="57" height="15"/>
<path d="M11.8032 20.216C11.8032 20.664 11.6952 21.084 11.4792 21.476C11.2712 21.868 10.9392 22.184 10.4832 22.424C10.0352 22.664 9.46719 22.784 8.77919 22.784H7.37519V26H5.69519V17.624H8.77919C9.42719 17.624 9.97919 17.736 10.4352 17.96C10.8912 18.184 11.2312 18.492 11.4552 18.884C11.6872 19.276 11.8032 19.72 11.8032 20.216ZM8.70719 21.428C9.17119 21.428 9.51519 21.324 9.73919 21.116C9.96319 20.9 10.0752 20.6 10.0752 20.216C10.0752 19.4 9.61919 18.992 8.70719 18.992H7.37519V21.428H8.70719ZM12.564 22.652C12.564 21.98 12.696 21.384 12.96 20.864C13.232 20.344 13.596 19.944 14.052 19.664C14.516 19.384 15.032 19.244 15.6 19.244C16.096 19.244 16.528 19.344 16.896 19.544C17.272 19.744 17.572 19.996 17.796 20.3V19.352H19.488V26H17.796V25.028C17.58 25.34 17.28 25.6 16.896 25.808C16.52 26.008 16.084 26.108 15.588 26.108C15.028 26.108 14.516 25.964 14.052 25.676C13.596 25.388 13.232 24.984 12.96 24.464C12.696 23.936 12.564 23.332 12.564 22.652ZM17.796 22.676C17.796 22.268 17.716 21.92 17.556 21.632C17.396 21.336 17.18 21.112 16.908 20.96C16.636 20.8 16.344 20.72 16.032 20.72C15.72 20.72 15.432 20.796 15.168 20.948C14.904 21.1 14.688 21.324 14.52 21.62C14.36 21.908 14.28 22.252 14.28 22.652C14.28 23.052 14.36 23.404 14.52 23.708C14.688 24.004 14.904 24.232 15.168 24.392C15.44 24.552 15.728 24.632 16.032 24.632C16.344 24.632 16.636 24.556 16.908 24.404C17.18 24.244 17.396 24.02 17.556 23.732C17.716 23.436 17.796 23.084 17.796 22.676ZM27.4888 19.352L23.3728 29.144H21.5848L23.0248 25.832L20.3608 19.352H22.2448L23.9608 23.996L25.7008 19.352H27.4888ZM36.6504 19.256C37.4664 19.256 38.1224 19.508 38.6184 20.012C39.1224 20.508 39.3744 21.204 39.3744 22.1V26H37.6944V22.328C37.6944 21.808 37.5624 21.412 37.2984 21.14C37.0344 20.86 36.6744 20.72 36.2184 20.72C35.7624 20.72 35.3984 20.86 35.1264 21.14C34.8624 21.412 34.7304 21.808 34.7304 22.328V26H33.0504V22.328C33.0504 21.808 32.9184 21.412 32.6544 21.14C32.3904 20.86 32.0304 20.72 31.5744 20.72C31.1104 20.72 30.7424 20.86 30.4704 21.14C30.2064 21.412 30.0744 21.808 30.0744 22.328V26H28.3944V19.352H30.0744V20.156C30.2904 19.876 30.5664 19.656 30.9024 19.496C31.2464 19.336 31.6224 19.256 32.0304 19.256C32.5504 19.256 33.0144 19.368 33.4224 19.592C33.8304 19.808 34.1464 20.12 34.3704 20.528C34.5864 20.144 34.8984 19.836 35.3064 19.604C35.7224 19.372 36.1704 19.256 36.6504 19.256ZM47.1486 22.532C47.1486 22.772 47.1326 22.988 47.1006 23.18H42.2406C42.2806 23.66 42.4486 24.036 42.7446 24.308C43.0406 24.58 43.4046 24.716 43.8366 24.716C44.4606 24.716 44.9046 24.448 45.1686 23.912H46.9806C46.7886 24.552 46.4206 25.08 45.8766 25.496C45.3326 25.904 44.6646 26.108 43.8726 26.108C43.2326 26.108 42.6566 25.968 42.1446 25.688C41.6406 25.4 41.2446 24.996 40.9566 24.476C40.6766 23.956 40.5366 23.356 40.5366 22.676C40.5366 21.988 40.6766 21.384 40.9566 20.864C41.2366 20.344 41.6286 19.944 42.1326 19.664C42.6366 19.384 43.2166 19.244 43.8726 19.244C44.5046 19.244 45.0686 19.38 45.5646 19.652C46.0686 19.924 46.4566 20.312 46.7286 20.816C47.0086 21.312 47.1486 21.884 47.1486 22.532ZM45.4086 22.052C45.4006 21.62 45.2446 21.276 44.9406 21.02C44.6366 20.756 44.2646 20.624 43.8246 20.624C43.4086 20.624 43.0566 20.752 42.7686 21.008C42.4886 21.256 42.3166 21.604 42.2526 22.052H45.4086ZM52.0589 19.256C52.8509 19.256 53.4909 19.508 53.9789 20.012C54.4669 20.508 54.7109 21.204 54.7109 22.1V26H53.0309V22.328C53.0309 21.8 52.8989 21.396 52.6349 21.116C52.3709 20.828 52.0109 20.684 51.5549 20.684C51.0909 20.684 50.7229 20.828 50.4509 21.116C50.1869 21.396 50.0549 21.8 50.0549 22.328V26H48.3749V19.352H50.0549V20.18C50.2789 19.892 50.5629 19.668 50.9069 19.508C51.2589 19.34 51.6429 19.256 52.0589 19.256ZM58.2645 20.732V23.948C58.2645 24.172 58.3165 24.336 58.4205 24.44C58.5325 24.536 58.7165 24.584 58.9725 24.584H59.7525V26H58.6965C57.2805 26 56.5725 25.312 56.5725 23.936V20.732H55.7805V19.352H56.5725V17.708H58.2645V19.352H59.7525V20.732H58.2645Z"/>
</mask>
<path d="M11.8032 20.216C11.8032 20.664 11.6952 21.084 11.4792 21.476C11.2712 21.868 10.9392 22.184 10.4832 22.424C10.0352 22.664 9.46719 22.784 8.77919 22.784H7.37519V26H5.69519V17.624H8.77919C9.42719 17.624 9.97919 17.736 10.4352 17.96C10.8912 18.184 11.2312 18.492 11.4552 18.884C11.6872 19.276 11.8032 19.72 11.8032 20.216ZM8.70719 21.428C9.17119 21.428 9.51519 21.324 9.73919 21.116C9.96319 20.9 10.0752 20.6 10.0752 20.216C10.0752 19.4 9.61919 18.992 8.70719 18.992H7.37519V21.428H8.70719ZM12.564 22.652C12.564 21.98 12.696 21.384 12.96 20.864C13.232 20.344 13.596 19.944 14.052 19.664C14.516 19.384 15.032 19.244 15.6 19.244C16.096 19.244 16.528 19.344 16.896 19.544C17.272 19.744 17.572 19.996 17.796 20.3V19.352H19.488V26H17.796V25.028C17.58 25.34 17.28 25.6 16.896 25.808C16.52 26.008 16.084 26.108 15.588 26.108C15.028 26.108 14.516 25.964 14.052 25.676C13.596 25.388 13.232 24.984 12.96 24.464C12.696 23.936 12.564 23.332 12.564 22.652ZM17.796 22.676C17.796 22.268 17.716 21.92 17.556 21.632C17.396 21.336 17.18 21.112 16.908 20.96C16.636 20.8 16.344 20.72 16.032 20.72C15.72 20.72 15.432 20.796 15.168 20.948C14.904 21.1 14.688 21.324 14.52 21.62C14.36 21.908 14.28 22.252 14.28 22.652C14.28 23.052 14.36 23.404 14.52 23.708C14.688 24.004 14.904 24.232 15.168 24.392C15.44 24.552 15.728 24.632 16.032 24.632C16.344 24.632 16.636 24.556 16.908 24.404C17.18 24.244 17.396 24.02 17.556 23.732C17.716 23.436 17.796 23.084 17.796 22.676ZM27.4888 19.352L23.3728 29.144H21.5848L23.0248 25.832L20.3608 19.352H22.2448L23.9608 23.996L25.7008 19.352H27.4888ZM36.6504 19.256C37.4664 19.256 38.1224 19.508 38.6184 20.012C39.1224 20.508 39.3744 21.204 39.3744 22.1V26H37.6944V22.328C37.6944 21.808 37.5624 21.412 37.2984 21.14C37.0344 20.86 36.6744 20.72 36.2184 20.72C35.7624 20.72 35.3984 20.86 35.1264 21.14C34.8624 21.412 34.7304 21.808 34.7304 22.328V26H33.0504V22.328C33.0504 21.808 32.9184 21.412 32.6544 21.14C32.3904 20.86 32.0304 20.72 31.5744 20.72C31.1104 20.72 30.7424 20.86 30.4704 21.14C30.2064 21.412 30.0744 21.808 30.0744 22.328V26H28.3944V19.352H30.0744V20.156C30.2904 19.876 30.5664 19.656 30.9024 19.496C31.2464 19.336 31.6224 19.256 32.0304 19.256C32.5504 19.256 33.0144 19.368 33.4224 19.592C33.8304 19.808 34.1464 20.12 34.3704 20.528C34.5864 20.144 34.8984 19.836 35.3064 19.604C35.7224 19.372 36.1704 19.256 36.6504 19.256ZM47.1486 22.532C47.1486 22.772 47.1326 22.988 47.1006 23.18H42.2406C42.2806 23.66 42.4486 24.036 42.7446 24.308C43.0406 24.58 43.4046 24.716 43.8366 24.716C44.4606 24.716 44.9046 24.448 45.1686 23.912H46.9806C46.7886 24.552 46.4206 25.08 45.8766 25.496C45.3326 25.904 44.6646 26.108 43.8726 26.108C43.2326 26.108 42.6566 25.968 42.1446 25.688C41.6406 25.4 41.2446 24.996 40.9566 24.476C40.6766 23.956 40.5366 23.356 40.5366 22.676C40.5366 21.988 40.6766 21.384 40.9566 20.864C41.2366 20.344 41.6286 19.944 42.1326 19.664C42.6366 19.384 43.2166 19.244 43.8726 19.244C44.5046 19.244 45.0686 19.38 45.5646 19.652C46.0686 19.924 46.4566 20.312 46.7286 20.816C47.0086 21.312 47.1486 21.884 47.1486 22.532ZM45.4086 22.052C45.4006 21.62 45.2446 21.276 44.9406 21.02C44.6366 20.756 44.2646 20.624 43.8246 20.624C43.4086 20.624 43.0566 20.752 42.7686 21.008C42.4886 21.256 42.3166 21.604 42.2526 22.052H45.4086ZM52.0589 19.256C52.8509 19.256 53.4909 19.508 53.9789 20.012C54.4669 20.508 54.7109 21.204 54.7109 22.1V26H53.0309V22.328C53.0309 21.8 52.8989 21.396 52.6349 21.116C52.3709 20.828 52.0109 20.684 51.5549 20.684C51.0909 20.684 50.7229 20.828 50.4509 21.116C50.1869 21.396 50.0549 21.8 50.0549 22.328V26H48.3749V19.352H50.0549V20.18C50.2789 19.892 50.5629 19.668 50.9069 19.508C51.2589 19.34 51.6429 19.256 52.0589 19.256ZM58.2645 20.732V23.948C58.2645 24.172 58.3165 24.336 58.4205 24.44C58.5325 24.536 58.7165 24.584 58.9725 24.584H59.7525V26H58.6965C57.2805 26 56.5725 25.312 56.5725 23.936V20.732H55.7805V19.352H56.5725V17.708H58.2645V19.352H59.7525V20.732H58.2645Z" fill="white"/>
<path d="M11.4792 21.476L10.6033 20.9934L10.5995 21.0003L10.5958 21.0073L11.4792 21.476ZM10.4832 22.424L10.0174 21.5391L10.011 21.5425L10.4832 22.424ZM7.37519 22.784V21.784H6.37519V22.784H7.37519ZM7.37519 26V27H8.37519V26H7.37519ZM5.69519 26H4.69519V27H5.69519V26ZM5.69519 17.624V16.624H4.69519V17.624H5.69519ZM11.4552 18.884L10.5869 19.3801L10.5907 19.3868L10.5946 19.3933L11.4552 18.884ZM9.73919 21.116L10.4196 21.8488L10.4265 21.8424L10.4333 21.8358L9.73919 21.116ZM7.37519 18.992V17.992H6.37519V18.992H7.37519ZM7.37519 21.428H6.37519V22.428H7.37519V21.428ZM11.8032 20.216H10.8032C10.8032 20.4954 10.7378 20.7494 10.6033 20.9934L11.4792 21.476L12.355 21.9586C12.6526 21.4186 12.8032 20.8326 12.8032 20.216H11.8032ZM11.4792 21.476L10.5958 21.0073C10.4965 21.1944 10.325 21.3772 10.0174 21.5391L10.4832 22.424L10.9489 23.3089C11.5533 22.9908 12.0458 22.5416 12.3625 21.9447L11.4792 21.476ZM10.4832 22.424L10.011 21.5425C9.75045 21.6821 9.35812 21.784 8.77919 21.784V22.784V23.784C9.57625 23.784 10.3199 23.6459 10.9554 23.3055L10.4832 22.424ZM8.77919 22.784V21.784H7.37519V22.784V23.784H8.77919V22.784ZM7.37519 22.784H6.37519V26H7.37519H8.37519V22.784H7.37519ZM7.37519 26V25H5.69519V26V27H7.37519V26ZM5.69519 26H6.69519V17.624H5.69519H4.69519V26H5.69519ZM5.69519 17.624V18.624H8.77919V17.624V16.624H5.69519V17.624ZM8.77919 17.624V18.624C9.31514 18.624 9.70795 18.7169 9.99428 18.8576L10.4352 17.96L10.8761 17.0624C10.2504 16.7551 9.53924 16.624 8.77919 16.624V17.624ZM10.4352 17.96L9.99428 18.8576C10.2942 19.0049 10.4742 19.1829 10.5869 19.3801L11.4552 18.884L12.3234 18.3879C11.9882 17.8011 11.4882 17.3631 10.8761 17.0624L10.4352 17.96ZM11.4552 18.884L10.5946 19.3933C10.7273 19.6175 10.8032 19.8828 10.8032 20.216H11.8032H12.8032C12.8032 19.5572 12.6471 18.9345 12.3158 18.3747L11.4552 18.884ZM8.70719 21.428V22.428C9.29643 22.428 9.93484 22.299 10.4196 21.8488L9.73919 21.116L9.05874 20.3832C9.09554 20.349 9.04595 20.428 8.70719 20.428V21.428ZM9.73919 21.116L10.4333 21.8358C10.8967 21.389 11.0752 20.8037 11.0752 20.216H10.0752H9.07519C9.07519 20.3117 9.06118 20.3609 9.05435 20.3792C9.04903 20.3935 9.04635 20.3949 9.04505 20.3962L9.73919 21.116ZM10.0752 20.216H11.0752C11.0752 19.6233 10.9045 19.0041 10.4 18.5528C9.91666 18.1203 9.2916 17.992 8.70719 17.992V18.992V19.992C9.03478 19.992 9.09371 20.0677 9.06639 20.0432C9.0514 20.0298 9.04832 20.0181 9.05261 20.0296C9.05907 20.047 9.07519 20.1026 9.07519 20.216H10.0752ZM8.70719 18.992V17.992H7.37519V18.992V19.992H8.70719V18.992ZM7.37519 18.992H6.37519V21.428H7.37519H8.37519V18.992H7.37519ZM7.37519 21.428V22.428H8.70719V21.428V20.428H7.37519V21.428ZM12.96 20.864L12.0738 20.4005L12.0683 20.4113L12.96 20.864ZM14.052 19.664L13.5353 18.8078L13.5287 18.8118L14.052 19.664ZM16.896 19.544L16.4184 20.4227L16.4264 20.4269L16.896 19.544ZM17.796 20.3L16.9909 20.8932L18.796 23.3429V20.3H17.796ZM17.796 19.352V18.352H16.796V19.352H17.796ZM19.488 19.352H20.488V18.352H19.488V19.352ZM19.488 26V27H20.488V26H19.488ZM17.796 26H16.796V27H17.796V26ZM17.796 25.028H18.796V21.8267L16.9738 24.4588L17.796 25.028ZM16.896 25.808L17.3656 26.6909L17.3723 26.6873L16.896 25.808ZM14.052 25.676L13.518 26.5215L13.5246 26.5256L14.052 25.676ZM12.96 24.464L12.0655 24.9112L12.0696 24.9194L12.0739 24.9275L12.96 24.464ZM17.556 21.632L16.6762 22.1075L16.6818 22.1176L17.556 21.632ZM16.908 20.96L16.4009 21.8219L16.4105 21.8275L16.4201 21.8329L16.908 20.96ZM15.168 20.948L14.669 20.0814L14.669 20.0814L15.168 20.948ZM14.52 21.62L13.6502 21.1264L13.6458 21.1344L14.52 21.62ZM14.52 23.708L13.6351 24.1737L13.6424 24.1878L13.6503 24.2016L14.52 23.708ZM15.168 24.392L14.6496 25.2473L14.6609 25.2539L15.168 24.392ZM16.908 24.404L17.3958 25.2769L17.4055 25.2715L17.415 25.2659L16.908 24.404ZM17.556 23.732L18.4302 24.2177L18.4357 24.2075L17.556 23.732ZM12.564 22.652H13.564C13.564 22.1133 13.669 21.6765 13.8516 21.3167L12.96 20.864L12.0683 20.4113C11.7229 21.0915 11.564 21.8467 11.564 22.652H12.564ZM12.96 20.864L13.8461 21.3275C14.0428 20.9515 14.2877 20.6927 14.5752 20.5162L14.052 19.664L13.5287 18.8118C12.9043 19.1953 12.4212 19.7365 12.0739 20.4005L12.96 20.864ZM14.052 19.664L14.5686 20.5202C14.8691 20.3389 15.2049 20.244 15.6 20.244V19.244V18.244C14.859 18.244 14.1629 18.4291 13.5353 18.8078L14.052 19.664ZM15.6 19.244V20.244C15.9599 20.244 16.2218 20.3158 16.4185 20.4226L16.896 19.544L17.3735 18.6654C16.8341 18.3722 16.232 18.244 15.6 18.244V19.244ZM16.896 19.544L16.4264 20.4269C16.6873 20.5656 16.8664 20.7242 16.9909 20.8932L17.796 20.3L18.601 19.7068C18.2775 19.2678 17.8567 18.9224 17.3656 18.6611L16.896 19.544ZM17.796 20.3H18.796V19.352H17.796H16.796V20.3H17.796ZM17.796 19.352V20.352H19.488V19.352V18.352H17.796V19.352ZM19.488 19.352H18.488V26H19.488H20.488V19.352H19.488ZM19.488 26V25H17.796V26V27H19.488V26ZM17.796 26H18.796V25.028H17.796H16.796V26H17.796ZM17.796 25.028L16.9738 24.4588C16.8597 24.6235 16.6865 24.7842 16.4197 24.9287L16.896 25.808L17.3723 26.6873C17.8734 26.4158 18.3002 26.0565 18.6182 25.5972L17.796 25.028ZM16.896 25.808L16.4264 24.9251C16.2171 25.0364 15.9473 25.108 15.588 25.108V26.108V27.108C16.2207 27.108 16.8229 26.9796 17.3656 26.6909L16.896 25.808ZM15.588 26.108V25.108C15.2093 25.108 14.8808 25.0135 14.5793 24.8264L14.052 25.676L13.5246 26.5256C14.1511 26.9145 14.8466 27.108 15.588 27.108V26.108ZM14.052 25.676L14.586 24.8305C14.2919 24.6448 14.0438 24.3786 13.8461 24.0005L12.96 24.464L12.0739 24.9275C12.4201 25.5894 12.9 26.1312 13.518 26.5215L14.052 25.676ZM12.96 24.464L13.8544 24.0168C13.6697 23.6473 13.564 23.2004 13.564 22.652H12.564H11.564C11.564 23.4636 11.7223 24.2247 12.0655 24.9112L12.96 24.464ZM17.796 22.676H18.796C18.796 22.1381 18.6901 21.6144 18.4301 21.1464L17.556 21.632L16.6818 22.1176C16.7418 22.2256 16.796 22.3979 16.796 22.676H17.796ZM17.556 21.632L18.4357 21.1565C18.1929 20.7074 17.8468 20.3391 17.3958 20.0871L16.908 20.96L16.4201 21.8329C16.5132 21.8849 16.599 21.9646 16.6763 22.1075L17.556 21.632ZM16.908 20.96L17.415 20.0981C16.9912 19.8488 16.5244 19.72 16.032 19.72V20.72V21.72C16.1635 21.72 16.2808 21.7512 16.4009 21.8219L16.908 20.96ZM16.032 20.72V19.72C15.5493 19.72 15.0886 19.8398 14.669 20.0814L15.168 20.948L15.6669 21.8146C15.7754 21.7522 15.8907 21.72 16.032 21.72V20.72ZM15.168 20.948L14.669 20.0814C14.2328 20.3325 13.8958 20.6938 13.6503 21.1264L14.52 21.62L15.3897 22.1136C15.4802 21.9542 15.5752 21.8675 15.6669 21.8146L15.168 20.948ZM14.52 21.62L13.6458 21.1344C13.3873 21.5996 13.28 22.1182 13.28 22.652H14.28H15.28C15.28 22.3858 15.3326 22.2164 15.3941 22.1056L14.52 21.62ZM14.28 22.652H13.28C13.28 23.1875 13.3879 23.7042 13.6351 24.1737L14.52 23.708L15.4049 23.2423C15.332 23.1038 15.28 22.9165 15.28 22.652H14.28ZM14.52 23.708L13.6503 24.2016C13.8938 24.6306 14.225 24.9898 14.6497 25.2472L15.168 24.392L15.6863 23.5368C15.583 23.4742 15.4822 23.3774 15.3897 23.2144L14.52 23.708ZM15.168 24.392L14.6609 25.2539C15.0805 25.5007 15.5427 25.632 16.032 25.632V24.632V23.632C15.9132 23.632 15.7994 23.6033 15.675 23.5301L15.168 24.392ZM16.032 24.632V25.632C16.5145 25.632 16.9745 25.5124 17.3958 25.2769L16.908 24.404L16.4201 23.5311C16.2974 23.5996 16.1734 23.632 16.032 23.632V24.632ZM16.908 24.404L17.415 25.2659C17.8477 25.0114 18.1875 24.6544 18.4301 24.2176L17.556 23.732L16.6818 23.2464C16.6045 23.3856 16.5123 23.4766 16.4009 23.5421L16.908 24.404ZM17.556 23.732L18.4357 24.2075C18.6898 23.7375 18.796 23.215 18.796 22.676H17.796H16.796C16.796 22.953 16.7422 23.1345 16.6763 23.2565L17.556 23.732ZM27.4888 19.352L28.4107 19.7395L28.9939 18.352H27.4888V19.352ZM23.3728 29.144V30.144H24.0372L24.2947 29.5315L23.3728 29.144ZM21.5848 29.144L20.6677 28.7453L20.0596 30.144H21.5848V29.144ZM23.0248 25.832L23.9419 26.2307L24.1105 25.8429L23.9497 25.4518L23.0248 25.832ZM20.3608 19.352V18.352H18.8685L19.4359 19.7322L20.3608 19.352ZM22.2448 19.352L23.1828 19.0054L22.9414 18.352H22.2448V19.352ZM23.9608 23.996L23.0228 24.3426L23.9543 26.8635L24.8972 24.3469L23.9608 23.996ZM25.7008 19.352V18.352H25.0076L24.7644 19.0011L25.7008 19.352ZM27.4888 19.352L26.5669 18.9645L22.4509 28.7565L23.3728 29.144L24.2947 29.5315L28.4107 19.7395L27.4888 19.352ZM23.3728 29.144V28.144H21.5848V29.144V30.144H23.3728V29.144ZM21.5848 29.144L22.5019 29.5427L23.9419 26.2307L23.0248 25.832L22.1077 25.4333L20.6677 28.7453L21.5848 29.144ZM23.0248 25.832L23.9497 25.4518L21.2857 18.9718L20.3608 19.352L19.4359 19.7322L22.0999 26.2122L23.0248 25.832ZM20.3608 19.352V20.352H22.2448V19.352V18.352H20.3608V19.352ZM22.2448 19.352L21.3068 19.6986L23.0228 24.3426L23.9608 23.996L24.8988 23.6494L23.1828 19.0054L22.2448 19.352ZM23.9608 23.996L24.8972 24.3469L26.6372 19.7029L25.7008 19.352L24.7644 19.0011L23.0244 23.6451L23.9608 23.996ZM25.7008 19.352V20.352H27.4888V19.352V18.352H25.7008V19.352ZM38.6184 20.012L37.9057 20.7134L37.9113 20.7191L37.917 20.7247L38.6184 20.012ZM39.3744 26V27H40.3744V26H39.3744ZM37.6944 26H36.6944V27H37.6944V26ZM37.2984 21.14L36.5708 21.826L36.5758 21.8313L36.5808 21.8365L37.2984 21.14ZM35.1264 21.14L34.4091 20.4432L34.4088 20.4435L35.1264 21.14ZM34.7304 26V27H35.7304V26H34.7304ZM33.0504 26H32.0504V27H33.0504V26ZM32.6544 21.14L31.9268 21.826L31.9318 21.8313L31.9368 21.8365L32.6544 21.14ZM30.4704 21.14L29.7531 20.4432L29.7528 20.4435L30.4704 21.14ZM30.0744 26V27H31.0744V26H30.0744ZM28.3944 26H27.3944V27H28.3944V26ZM28.3944 19.352V18.352H27.3944V19.352H28.3944ZM30.0744 19.352H31.0744V18.352H30.0744V19.352ZM30.0744 20.156H29.0744V23.0895L30.8662 20.7668L30.0744 20.156ZM30.9024 19.496L30.4807 18.5892L30.4725 18.5931L30.9024 19.496ZM33.4224 19.592L32.9411 20.4686L32.9478 20.4722L32.9545 20.4758L33.4224 19.592ZM34.3704 20.528L33.4938 21.0093L34.3598 22.5866L35.242 21.0183L34.3704 20.528ZM35.3064 19.604L34.8193 18.7306L34.8121 18.7347L35.3064 19.604ZM36.6504 19.256V20.256C37.2432 20.256 37.6269 20.4302 37.9057 20.7134L38.6184 20.012L39.3311 19.3106C38.6179 18.5858 37.6896 18.256 36.6504 18.256V19.256ZM38.6184 20.012L37.917 20.7247C38.1822 20.9857 38.3744 21.3965 38.3744 22.1H39.3744H40.3744C40.3744 21.0115 40.0626 20.0303 39.3198 19.2993L38.6184 20.012ZM39.3744 22.1H38.3744V26H39.3744H40.3744V22.1H39.3744ZM39.3744 26V25H37.6944V26V27H39.3744V26ZM37.6944 26H38.6944V22.328H37.6944H36.6944V26H37.6944ZM37.6944 22.328H38.6944C38.6944 21.6464 38.5197 20.9625 38.016 20.4435L37.2984 21.14L36.5808 21.8365C36.6051 21.8615 36.6944 21.9696 36.6944 22.328H37.6944ZM37.2984 21.14L38.026 20.454C37.5382 19.9367 36.8946 19.72 36.2184 19.72V20.72V21.72C36.4542 21.72 36.5306 21.7833 36.5708 21.826L37.2984 21.14ZM36.2184 20.72V19.72C35.5414 19.72 34.9012 19.9367 34.4091 20.4432L35.1264 21.14L35.8437 21.8368C35.8956 21.7833 35.9834 21.72 36.2184 21.72V20.72ZM35.1264 21.14L34.4088 20.4435C33.9051 20.9625 33.7304 21.6464 33.7304 22.328H34.7304H35.7304C35.7304 21.9696 35.8197 21.8615 35.844 21.8365L35.1264 21.14ZM34.7304 22.328H33.7304V26H34.7304H35.7304V22.328H34.7304ZM34.7304 26V25H33.0504V26V27H34.7304V26ZM33.0504 26H34.0504V22.328H33.0504H32.0504V26H33.0504ZM33.0504 22.328H34.0504C34.0504 21.6464 33.8757 20.9625 33.372 20.4435L32.6544 21.14L31.9368 21.8365C31.9611 21.8615 32.0504 21.9696 32.0504 22.328H33.0504ZM32.6544 21.14L33.382 20.454C32.8942 19.9367 32.2506 19.72 31.5744 19.72V20.72V21.72C31.8102 21.72 31.8866 21.7833 31.9268 21.826L32.6544 21.14ZM31.5744 20.72V19.72C30.8951 19.72 30.2486 19.9332 29.7531 20.4432L30.4704 21.14L31.1877 21.8368C31.2362 21.7868 31.3257 21.72 31.5744 21.72V20.72ZM30.4704 21.14L29.7528 20.4435C29.2491 20.9625 29.0744 21.6464 29.0744 22.328H30.0744H31.0744C31.0744 21.9696 31.1637 21.8615 31.188 21.8365L30.4704 21.14ZM30.0744 22.328H29.0744V26H30.0744H31.0744V22.328H30.0744ZM30.0744 26V25H28.3944V26V27H30.0744V26ZM28.3944 26H29.3944V19.352H28.3944H27.3944V26H28.3944ZM28.3944 19.352V20.352H30.0744V19.352V18.352H28.3944V19.352ZM30.0744 19.352H29.0744V20.156H30.0744H31.0744V19.352H30.0744ZM30.0744 20.156L30.8662 20.7668C30.9812 20.6178 31.1306 20.4949 31.3323 20.3989L30.9024 19.496L30.4725 18.5931C30.0022 18.8171 29.5997 19.1342 29.2826 19.5452L30.0744 20.156ZM30.9024 19.496L31.3241 20.4027C31.5263 20.3087 31.7569 20.256 32.0304 20.256V19.256V18.256C31.4879 18.256 30.9665 18.3633 30.4807 18.5893L30.9024 19.496ZM32.0304 19.256V20.256C32.4022 20.256 32.6973 20.3347 32.9411 20.4686L33.4224 19.592L33.9037 18.7154C33.3315 18.4013 32.6986 18.256 32.0304 18.256V19.256ZM33.4224 19.592L32.9545 20.4758C33.1884 20.5996 33.363 20.771 33.4938 21.0093L34.3704 20.528L35.247 20.0467C34.9298 19.469 34.4724 19.0164 33.8903 18.7082L33.4224 19.592ZM34.3704 20.528L35.242 21.0183C35.3631 20.8029 35.5398 20.6216 35.8007 20.4733L35.3064 19.604L34.8121 18.7347C34.257 19.0504 33.8097 19.4851 33.4988 20.0377L34.3704 20.528ZM35.3064 19.604L35.7935 20.4774C36.0594 20.3291 36.3395 20.256 36.6504 20.256V19.256V18.256C36.0013 18.256 35.3854 18.4149 34.8193 18.7306L35.3064 19.604ZM47.1006 23.18V24.18H47.9478L48.087 23.3444L47.1006 23.18ZM42.2406 23.18V22.18H41.1538L41.2441 23.263L42.2406 23.18ZM42.7446 24.308L42.068 25.0443L42.068 25.0443L42.7446 24.308ZM45.1686 23.912V22.912H44.5464L44.2715 23.4701L45.1686 23.912ZM46.9806 23.912L47.9385 24.1993L48.3247 22.912H46.9806V23.912ZM45.8766 25.496L46.4767 26.296L46.4841 26.2904L45.8766 25.496ZM42.1446 25.688L41.6485 26.5562L41.6566 26.5609L41.6648 26.5654L42.1446 25.688ZM40.9566 24.476L40.0761 24.9501L40.0818 24.9605L40.9566 24.476ZM40.9566 20.864L40.0762 20.3899L40.0762 20.3899L40.9566 20.864ZM42.1326 19.664L42.6183 20.5382L42.6183 20.5382L42.1326 19.664ZM45.5646 19.652L45.0838 20.5288L45.0897 20.532L45.5646 19.652ZM46.7286 20.816L45.8486 21.2909L45.8531 21.2993L45.8578 21.3076L46.7286 20.816ZM45.4086 22.052V23.052H46.4273L46.4085 22.0335L45.4086 22.052ZM44.9406 21.02L44.2849 21.775L44.2907 21.78L44.2965 21.7849L44.9406 21.02ZM42.7686 21.008L43.4317 21.7566L43.433 21.7554L42.7686 21.008ZM42.2526 22.052L41.2627 21.9106L41.0996 23.052H42.2526V22.052ZM47.1486 22.532H46.1486C46.1486 22.7291 46.1354 22.8887 46.1142 23.0156L47.1006 23.18L48.087 23.3444C48.1299 23.0873 48.1486 22.8149 48.1486 22.532H47.1486ZM47.1006 23.18V22.18H42.2406V23.18V24.18H47.1006V23.18ZM42.2406 23.18L41.2441 23.263C41.3006 23.9408 41.5517 24.5699 42.068 25.0443L42.7446 24.308L43.4213 23.5717C43.3455 23.5021 43.2607 23.3792 43.2372 23.097L42.2406 23.18ZM42.7446 24.308L42.068 25.0443C42.563 25.4992 43.1744 25.716 43.8366 25.716V24.716V23.716C43.6348 23.716 43.5182 23.6608 43.4213 23.5717L42.7446 24.308ZM43.8366 24.716V25.716C44.2936 25.716 44.7474 25.6168 45.1544 25.3711C45.5639 25.1239 45.8623 24.7668 46.0657 24.3538L45.1686 23.912L44.2715 23.4701C44.2109 23.5932 44.1553 23.6381 44.1209 23.6589C44.0838 23.6812 44.0036 23.716 43.8366 23.716V24.716ZM45.1686 23.912V24.912H46.9806V23.912V22.912H45.1686V23.912ZM46.9806 23.912L46.0228 23.6247C45.8929 24.0577 45.6504 24.4101 45.2692 24.7016L45.8766 25.496L46.4841 26.2904C47.1909 25.7499 47.6844 25.0463 47.9385 24.1993L46.9806 23.912ZM45.8766 25.496L45.2766 24.696C44.9331 24.9536 44.4852 25.108 43.8726 25.108V26.108V27.108C44.844 27.108 45.7321 26.8544 46.4766 26.296L45.8766 25.496ZM43.8726 26.108V25.108C43.3837 25.108 42.9754 25.0026 42.6244 24.8106L42.1446 25.688L41.6648 26.5654C42.3378 26.9334 43.0815 27.108 43.8726 27.108V26.108ZM42.1446 25.688L42.6408 24.8198C42.2997 24.6249 42.033 24.3554 41.8314 23.9915L40.9566 24.476L40.0818 24.9605C40.4563 25.6366 40.9815 26.1751 41.6485 26.5562L42.1446 25.688ZM40.9566 24.476L41.8371 24.0019C41.6467 23.6483 41.5366 23.2158 41.5366 22.676H40.5366H39.5366C39.5366 23.4962 39.7065 24.2637 40.0762 24.9501L40.9566 24.476ZM40.5366 22.676H41.5366C41.5366 22.1261 41.6476 21.69 41.8371 21.3381L40.9566 20.864L40.0762 20.3899C39.7057 21.078 39.5366 21.8499 39.5366 22.676H40.5366ZM40.9566 20.864L41.8371 21.3381C42.0288 20.9821 42.2857 20.7229 42.6183 20.5382L42.1326 19.664L41.647 18.7898C40.9716 19.1651 40.4445 19.7059 40.0762 20.3899L40.9566 20.864ZM42.1326 19.664L42.6183 20.5382C42.9543 20.3515 43.3628 20.244 43.8726 20.244V19.244V18.244C43.0704 18.244 42.319 18.4165 41.647 18.7898L42.1326 19.664ZM43.8726 19.244V20.244C44.3566 20.244 44.7518 20.3468 45.0838 20.5288L45.5646 19.652L46.0455 18.7752C45.3854 18.4132 44.6526 18.244 43.8726 18.244V19.244ZM45.5646 19.652L45.0897 20.532C45.422 20.7114 45.6692 20.9586 45.8486 21.2909L46.7286 20.816L47.6086 20.3411C47.244 19.6654 46.7152 19.1366 46.0396 18.772L45.5646 19.652ZM46.7286 20.816L45.8578 21.3076C46.042 21.6339 46.1486 22.0322 46.1486 22.532H47.1486H48.1486C48.1486 21.7358 47.9752 20.9901 47.5994 20.3244L46.7286 20.816ZM45.4086 22.052L46.4085 22.0335C46.3956 21.3414 46.1302 20.7144 45.5848 20.2551L44.9406 21.02L44.2965 21.7849C44.359 21.8376 44.4056 21.8986 44.4088 22.0705L45.4086 22.052ZM44.9406 21.02L45.5963 20.265C45.093 19.8279 44.4815 19.624 43.8246 19.624V20.624V21.624C44.0478 21.624 44.1803 21.6841 44.2849 21.775L44.9406 21.02ZM43.8246 20.624V19.624C43.1849 19.624 42.5905 19.8284 42.1043 20.2606L42.7686 21.008L43.433 21.7554C43.5227 21.6756 43.6324 21.624 43.8246 21.624V20.624ZM42.7686 21.008L42.1056 20.2594C41.6128 20.6959 41.3529 21.2792 41.2627 21.9106L42.2526 22.052L43.2426 22.1934C43.2804 21.9288 43.3645 21.8161 43.4317 21.7566L42.7686 21.008ZM42.2526 22.052V23.052H45.4086V22.052V21.052H42.2526V22.052ZM53.9789 20.012L53.2604 20.7076L53.266 20.7133L53.9789 20.012ZM54.7109 26V27H55.7109V26H54.7109ZM53.0309 26H52.0309V27H53.0309V26ZM52.6349 21.116L51.8976 21.7918L51.9073 21.802L52.6349 21.116ZM50.4509 21.116L49.7239 20.4294L49.7233 20.43L50.4509 21.116ZM50.0549 26V27H51.0549V26H50.0549ZM48.3749 26H47.3749V27H48.3749V26ZM48.3749 19.352V18.352H47.3749V19.352H48.3749ZM50.0549 19.352H51.0549V18.352H50.0549V19.352ZM50.0549 20.18H49.0549V23.0945L50.8442 20.7939L50.0549 20.18ZM50.9069 19.508L51.3286 20.4148L51.3376 20.4105L50.9069 19.508ZM52.0589 19.256V20.256C52.6183 20.256 52.9859 20.424 53.2605 20.7076L53.9789 20.012L54.6973 19.3164C53.9959 18.592 53.0834 18.256 52.0589 18.256V19.256ZM53.9789 20.012L53.266 20.7133C53.5213 20.9728 53.7109 21.3877 53.7109 22.1H54.7109H55.7109C55.7109 21.0203 55.4124 20.0432 54.6917 19.3107L53.9789 20.012ZM54.7109 22.1H53.7109V26H54.7109H55.7109V22.1H54.7109ZM54.7109 26V25H53.0309V26V27H54.7109V26ZM53.0309 26H54.0309V22.328H53.0309H52.0309V26H53.0309ZM53.0309 22.328H54.0309C54.0309 21.6411 53.8578 20.9554 53.3625 20.43L52.6349 21.116L51.9073 21.802C51.9399 21.8366 52.0309 21.9589 52.0309 22.328H53.0309ZM52.6349 21.116L53.372 20.4403C52.8865 19.9106 52.2399 19.684 51.5549 19.684V20.684V21.684C51.7819 21.684 51.8552 21.7454 51.8977 21.7917L52.6349 21.116ZM51.5549 20.684V19.684C50.867 19.684 50.2173 19.9069 49.7239 20.4294L50.4509 21.116L51.1779 21.8026C51.2284 21.7491 51.3147 21.684 51.5549 21.684V20.684ZM50.4509 21.116L49.7233 20.43C49.2279 20.9554 49.0549 21.6411 49.0549 22.328H50.0549H51.0549C51.0549 21.9589 51.1458 21.8366 51.1785 21.802L50.4509 21.116ZM50.0549 22.328H49.0549V26H50.0549H51.0549V22.328H50.0549ZM50.0549 26V25H48.3749V26V27H50.0549V26ZM48.3749 26H49.3749V19.352H48.3749H47.3749V26H48.3749ZM48.3749 19.352V20.352H50.0549V19.352V18.352H48.3749V19.352ZM50.0549 19.352H49.0549V20.18H50.0549H51.0549V19.352H50.0549ZM50.0549 20.18L50.8442 20.7939C50.9667 20.6364 51.1227 20.5105 51.3286 20.4147L50.9069 19.508L50.4851 18.6013C50.003 18.8255 49.591 19.1476 49.2655 19.5661L50.0549 20.18ZM50.9069 19.508L51.3376 20.4105C51.5462 20.3109 51.7818 20.256 52.0589 20.256V19.256V18.256C51.504 18.256 50.9715 18.3691 50.4761 18.6055L50.9069 19.508ZM58.2645 20.732V19.732H57.2645V20.732H58.2645ZM58.4205 24.44L57.7134 25.1471L57.7405 25.1743L57.7697 25.1993L58.4205 24.44ZM59.7525 24.584H60.7525V23.584H59.7525V24.584ZM59.7525 26V27H60.7525V26H59.7525ZM56.5725 20.732H57.5725V19.732H56.5725V20.732ZM55.7805 20.732H54.7805V21.732H55.7805V20.732ZM55.7805 19.352V18.352H54.7805V19.352H55.7805ZM56.5725 19.352V20.352H57.5725V19.352H56.5725ZM56.5725 17.708V16.708H55.5725V17.708H56.5725ZM58.2645 17.708H59.2645V16.708H58.2645V17.708ZM58.2645 19.352H57.2645V20.352H58.2645V19.352ZM59.7525 19.352H60.7525V18.352H59.7525V19.352ZM59.7525 20.732V21.732H60.7525V20.732H59.7525ZM58.2645 20.732H57.2645V23.948H58.2645H59.2645V20.732H58.2645ZM58.2645 23.948H57.2645C57.2645 24.301 57.3436 24.7773 57.7134 25.1471L58.4205 24.44L59.1276 23.7329C59.2067 23.812 59.2425 23.892 59.2567 23.9368C59.2694 23.9769 59.2645 23.9866 59.2645 23.948H58.2645ZM58.4205 24.44L57.7697 25.1993C58.1554 25.5299 58.6373 25.584 58.9725 25.584V24.584V23.584C58.9023 23.584 58.8817 23.5769 58.8949 23.5804C58.9088 23.584 58.9837 23.6057 59.0713 23.6807L58.4205 24.44ZM58.9725 24.584V25.584H59.7525V24.584V23.584H58.9725V24.584ZM59.7525 24.584H58.7525V26H59.7525H60.7525V24.584H59.7525ZM59.7525 26V25H58.6965V26V27H59.7525V26ZM58.6965 26V25C58.1355 25 57.8998 24.8635 57.8004 24.7668C57.7062 24.6754 57.5725 24.4625 57.5725 23.936H56.5725H55.5725C55.5725 24.7855 55.7927 25.6046 56.4066 26.2012C57.0151 26.7925 57.8414 27 58.6965 27V26ZM56.5725 23.936H57.5725V20.732H56.5725H55.5725V23.936H56.5725ZM56.5725 20.732V19.732H55.7805V20.732V21.732H56.5725V20.732ZM55.7805 20.732H56.7805V19.352H55.7805H54.7805V20.732H55.7805ZM55.7805 19.352V20.352H56.5725V19.352V18.352H55.7805V19.352ZM56.5725 19.352H57.5725V17.708H56.5725H55.5725V19.352H56.5725ZM56.5725 17.708V18.708H58.2645V17.708V16.708H56.5725V17.708ZM58.2645 17.708H57.2645V19.352H58.2645H59.2645V17.708H58.2645ZM58.2645 19.352V20.352H59.7525V19.352V18.352H58.2645V19.352ZM59.7525 19.352H58.7525V20.732H59.7525H60.7525V19.352H59.7525ZM59.7525 20.732V19.732H58.2645V20.732V21.732H59.7525V20.732Z" fill="#333333" mask="url(#path-6-outside-2_2009_1874)"/>
<defs>
<clipPath id="clip0_2009_1874">
<rect width="11" height="11" fill="white" transform="translate(5 4)"/>
</clipPath>
</defs>
</svg>
